<svg xmlns="http://www.w3.org/2000/svg" xmlns:xlink="http://www.w3.org/1999/xlink" width="1557" height="528" viewBox="0 0 1557 528"><defs><linearGradient id="a" x1="0.5" x2="0.5" y2="1" gradientUnits="objectBoundingBox"><stop offset="0" stop-color="#4b38db"/><stop offset="1" stop-color="#0c1d65"/></linearGradient><filter id="b" x="0" y="0" width="528" height="528" filterUnits="userSpaceOnUse"><feOffset input="SourceAlpha"/><feGaussianBlur stdDeviation="8" result="c"/><feFlood flood-color="#09195c" flood-opacity="0.4"/><feComposite operator="in" in2="c"/><feComposite in="SourceGraphic"/></filter><radialGradient id="d" cx="0.5" cy="0.272" r="0.58" gradientTransform="translate(0.207 -0.216) rotate(30.483)" gradientUnits="objectBoundingBox"><stop offset="0" stop-color="#6e5ee8"/><stop offset="1" stop-color="#112474"/></radialGradient></defs><g transform="translate(-16 -36)"><g transform="translate(24 44)"><g transform="matrix(1, 0, 0, 1, -8, -8)" filter="url(#b)"><circle cx="240" cy="240" r="240" transform="translate(24 24)" fill="url(#a)"/></g><g transform="translate(16 16)" stroke="#fff" stroke-width="8" fill="url(#d)"><circle cx="240" cy="240" r="240" stroke="none"/><circle cx="240" cy="240" r="236" fill="none"/></g><g transform="translate(70.024 348.943) rotate(-90)"><path d="M171.889,47.421A93.321,93.321,0,0,0,138.364,12.77,87.87,87.87,0,0,0,92.123,0,87.88,87.88,0,0,0,45.882,12.77,93.311,93.311,0,0,0,12.355,47.421,95.549,95.549,0,0,0,0,95.212a94.635,94.635,0,0,0,17.573,55.975q17.572,24.858,45.4,34.4,3.239.621,4.8-.867A4.925,4.925,0,0,0,69.33,181q0-.372-.06-6.695t-.061-11.032l-2.759.493a34.071,34.071,0,0,1-6.657.434,49.129,49.129,0,0,1-8.336-.868,18.341,18.341,0,0,1-8.037-3.717A15.724,15.724,0,0,1,38.143,152l-1.2-2.853a31.179,31.179,0,0,0-3.778-6.322,14.62,14.62,0,0,0-5.218-4.711l-.84-.621A8.926,8.926,0,0,1,25.549,136a6.833,6.833,0,0,1-1.079-1.736,1.061,1.061,0,0,1,.6-1.428,7.555,7.555,0,0,1,3.479-.554l2.4.37a17.266,17.266,0,0,1,5.938,2.975,19.763,19.763,0,0,1,5.817,6.445,21.629,21.629,0,0,0,6.657,7.75,13.813,13.813,0,0,0,7.856,2.664,33.038,33.038,0,0,0,6.837-.618,23.323,23.323,0,0,0,5.4-1.861q1.08-8.31,5.877-12.771A79.723,79.723,0,0,1,63.036,135a48.082,48.082,0,0,1-11.274-4.837,32.569,32.569,0,0,1-9.657-8.305,40.441,40.441,0,0,1-6.3-13.018,63.841,63.841,0,0,1-2.459-18.6q0-15,9.477-25.54-4.439-11.28.839-25.29,3.478-1.114,10.315,1.68a71.066,71.066,0,0,1,10.016,4.774q3.18,1.981,5.1,3.347a83.92,83.92,0,0,1,46.064,0l4.558-2.974a63.669,63.669,0,0,1,11.033-5.456q6.357-2.478,9.719-1.363,5.4,14.01.957,25.29Q150.9,75.25,150.9,90.252a64.555,64.555,0,0,1-2.459,18.657,38.858,38.858,0,0,1-6.355,13.018,33.8,33.8,0,0,1-9.718,8.244,48.175,48.175,0,0,1-11.276,4.836,79.638,79.638,0,0,1-12.294,2.235q6.235,5.577,6.236,17.6V181a5.021,5.021,0,0,0,1.5,3.718q1.5,1.484,4.737.866,27.831-9.544,45.4-34.4a94.655,94.655,0,0,0,17.572-55.975,95.627,95.627,0,0,0-12.354-47.788Z" fill="#fff"/></g><text transform="translate(280 348)" fill="#fff" font-size="269" font-family="FuturaPT-Medium, Futura PT" font-weight="500"><tspan x="0" y="0">#</tspan></text></g><text transform="translate(584 366)" fill="#3c3faa" font-size="192" font-family="FuturaPT-Demi, Futura PT" font-weight="300"><tspan x="0" y="0">SharpLinker</tspan></text></g></svg>